#N canvas -8 0 1920 966 12;
#X obj 234 38 netreceive -u -b 5005;
#X obj 234 79 oscparse;
#X obj 236 146 route list;
#X obj 332 382 route 1;
#X obj 429 382 route 2;
#X obj 531 383 route 3;
#X obj 233 287 route 0;
#X obj 931 213 route 1;
#X obj 1145 210 route 2;
#X obj 1281 210 route 3;
#X obj 1283 323 route 1;
#X obj 1283 351 route 2;
#X obj 1283 385 route 3;
#X obj 926 324 route 1;
#X obj 926 352 route 2;
#X obj 926 386 route 3;
#X obj 1144 323 route 1;
#X obj 1144 351 route 2;
#X obj 1144 385 route 3;
#X obj 233 382 route 0;
#X obj 926 293 route 0;
#X obj 1144 292 route 0;
#X obj 1283 292 route 0;
#X obj 183 716 phasor~;
#X obj 183 753 lop~ 6000;
#X obj 188 834 *~;
#X floatatom 183 632 5 0 0 0 - - - 0;
#X obj 183 660 mtof;
#X floatatom 183 684 5 0 0 0 - - - 0;
#X obj 189 890 dac~;
#X obj 184 597 + 62;
#X obj 233 195 route cell;
#X floatatom 193 549 5 0 0 0 - - - 0;
#X obj 678 425 print osc;
#X obj 234 502 unpack f f f;
#X obj 233 437 route rgb;
#X connect 0 0 1 0;
#X connect 1 0 2 0;
#X connect 2 0 31 0;
#X connect 6 0 3 0;
#X connect 6 0 4 0;
#X connect 6 0 5 0;
#X connect 6 0 19 0;
#X connect 7 0 13 0;
#X connect 7 0 14 0;
#X connect 7 0 15 0;
#X connect 7 0 20 0;
#X connect 8 0 18 0;
#X connect 8 0 17 0;
#X connect 8 0 16 0;
#X connect 8 0 21 0;
#X connect 9 0 10 0;
#X connect 9 0 11 0;
#X connect 9 0 12 0;
#X connect 9 0 22 0;
#X connect 19 0 33 0;
#X connect 19 0 35 0;
#X connect 23 0 24 0;
#X connect 24 0 25 0;
#X connect 25 0 29 0;
#X connect 25 0 29 1;
#X connect 26 0 27 0;
#X connect 27 0 28 0;
#X connect 28 0 23 0;
#X connect 30 0 26 0;
#X connect 31 0 6 0;
#X connect 31 0 7 0;
#X connect 31 0 8 0;
#X connect 31 0 9 0;
#X connect 32 0 30 0;
#X connect 34 0 32 0;
#X connect 35 0 34 0;
