#N canvas -8 0 958 956 12;
#X obj 234 79 oscparse;
#X obj 234 138 route list;
#X obj 332 382 route 1;
#X obj 429 382 route 2;
#X obj 531 383 route 3;
#X obj 931 213 route 1;
#X obj 1145 210 route 2;
#X obj 1281 210 route 3;
#X obj 1283 323 route 1;
#X obj 1283 351 route 2;
#X obj 1283 385 route 3;
#X obj 926 324 route 1;
#X obj 926 352 route 2;
#X obj 926 386 route 3;
#X obj 1144 323 route 1;
#X obj 1144 351 route 2;
#X obj 1144 385 route 3;
#X obj 926 293 route 0;
#X obj 1144 292 route 0;
#X obj 1283 292 route 0;
#X obj 233 195 route cell;
#X obj 682 457 print osc;
#X obj 233 463 unpack f f f;
#X obj 233 425 route rgb;
#X obj 234 591 bng 19 250 50 0 empty empty empty 0 -10 0 12 #fcfcfc #000000 #000000;
#X obj 232 665 line~;
#X obj 236 708 sqrt~;
#X obj 235 920 dac~;
#X obj 245 759 *~ 1;
#X obj 246 831 *~ 30;
#X obj 246 868 cos~;
#X obj 244 793 +~ 1;
#X obj 360 503 * 1000;
#X msg 233 620 0 \, 20 1000;
#X floatatom 237 529 5 0 0 0 - - - 0;
#X obj 236 558 metro 800;
#X obj 233 287 route 0;
#X obj 233 382 route 0;
#X obj 481 135 print OSC;
#X obj 234 38 netreceive -u -b;
#X msg 102 21 listen 5005;
#X connect 0 0 1 0;
#X connect 0 0 38 0;
#X connect 1 0 20 0;
#X connect 5 0 11 0;
#X connect 5 0 12 0;
#X connect 5 0 13 0;
#X connect 5 0 17 0;
#X connect 6 0 16 0;
#X connect 6 0 15 0;
#X connect 6 0 14 0;
#X connect 6 0 18 0;
#X connect 7 0 8 0;
#X connect 7 0 9 0;
#X connect 7 0 10 0;
#X connect 7 0 19 0;
#X connect 20 0 5 0;
#X connect 20 0 6 0;
#X connect 20 0 7 0;
#X connect 20 0 36 0;
#X connect 22 0 32 0;
#X connect 23 0 22 0;
#X connect 24 0 33 0;
#X connect 25 0 26 0;
#X connect 26 0 28 0;
#X connect 28 0 31 0;
#X connect 29 0 30 0;
#X connect 30 0 27 0;
#X connect 30 0 27 1;
#X connect 31 0 29 0;
#X connect 32 0 34 0;
#X connect 33 0 25 0;
#X connect 34 0 35 0;
#X connect 35 0 24 0;
#X connect 36 0 2 0;
#X connect 36 0 3 0;
#X connect 36 0 4 0;
#X connect 36 0 37 0;
#X connect 37 0 21 0;
#X connect 37 0 23 0;
#X connect 39 0 0 0;
#X connect 40 0 39 0;
